<svg width="416" height="900" viewBox="0 0 416 900" fill="none" xmlns="http://www.w3.org/2000/svg">
<path d="M345.206 17.5103H347.876V23.7255H349.037V25.2411H347.876V27H346.11V25.2411H341.521V23.7255C342.634 21.6399 343.92 19.5334 345.206 17.5103ZM343.225 23.7255H346.11V18.9285H346.047C345.074 20.4372 344.073 22.0918 343.225 23.7047V23.7255ZM357.831 20.5484H356.003C355.885 19.5681 355.182 18.9077 354.056 18.9077C352.694 18.9077 351.922 19.881 351.922 21.5773V22.8218C351.922 24.4972 352.582 25.6096 354.112 25.6096C355.315 25.6096 356.058 24.8587 356.058 23.8924V23.2875H354.105V21.8902H357.845V23.7811C357.845 25.6096 356.51 27.1808 354.077 27.1808C351.317 27.1808 350.031 25.4149 350.031 22.8287V21.5634C350.031 19.012 351.491 17.3295 354.063 17.3295C356.406 17.3295 357.755 18.7825 357.831 20.5484Z" fill="black"/>
<rect x="317" y="22.6914" width="3.00581" height="4.46095" fill="black"/>
<rect x="322.01" y="20.461" width="3.00581" height="6.69142" fill="black"/>
<rect x="327.019" y="18.2305" width="3.00581" height="8.92189" fill="black"/>
<rect opacity="0.3" x="332.029" y="16" width="3.00581" height="11.1524" fill="black"/>
<rect x="365.544" y="16.4746" width="22.7808" height="10.2032" rx="2.373" stroke="black" stroke-width="0.949202"/>
<rect x="366.968" y="17.7157" width="11.3904" height="7.72087" rx="0.949202" fill="#FDD015"/>
<rect x="389.749" y="19.4315" width="1.8984" height="4.28937" rx="0.949202" fill="black"/>
<path d="M29.6382 21.8703V21.1029C29.6382 17.8958 31.1488 15.7632 33.8308 15.7632C36.5289 15.7632 37.983 17.8797 37.983 21.1029V21.8703C37.983 24.9401 36.5693 27.21 33.7904 27.21C31.1003 27.21 29.6382 25.0693 29.6382 21.8703ZM31.8112 21.111V21.8542C31.8112 24.213 32.5948 25.4328 33.8065 25.4328C35.0264 25.4328 35.8019 24.2049 35.8019 21.8542V21.111C35.8019 18.7683 35.0264 17.5485 33.8065 17.5485C32.5948 17.5485 31.8112 18.7602 31.8112 21.111ZM43.5246 27.21C40.9477 27.21 39.2755 25.8852 39.2755 23.9707C39.2755 22.2177 40.5922 21.4179 41.5859 21.216V21.1514C40.6488 20.8606 39.7198 20.1012 39.7198 18.6794C39.7198 16.9992 41.2466 15.7632 43.5489 15.7632C45.8512 15.7632 47.378 16.9992 47.378 18.6794C47.378 20.1174 46.4166 20.8686 45.5038 21.1514V21.216C46.5055 21.4179 47.8142 22.2258 47.8142 23.9626C47.8142 25.8771 46.1097 27.21 43.5246 27.21ZM43.5489 20.5132C44.5506 20.5132 45.2938 19.8589 45.2938 18.9218C45.2938 17.9847 44.5506 17.3546 43.5489 17.3546C42.5472 17.3546 41.804 17.9847 41.804 18.9218C41.804 19.8589 42.5472 20.5132 43.5489 20.5132ZM43.5489 25.6348C44.7364 25.6348 45.6492 24.9077 45.6492 23.8253C45.6492 22.7428 44.7364 21.9996 43.5489 21.9996C42.3533 21.9996 41.4485 22.7428 41.4485 23.8253C41.4485 24.9077 42.3533 25.6348 43.5489 25.6348ZM49.3167 18.841C49.3167 18.1463 49.8822 17.5889 50.5689 17.5889C51.2555 17.5889 51.821 18.1463 51.821 18.841C51.821 19.5276 51.2555 20.0931 50.5689 20.0931C49.8822 20.0931 49.3167 19.5276 49.3167 18.841ZM49.3167 24.423C49.3167 23.7364 49.8822 23.1709 50.5689 23.1709C51.2555 23.1709 51.821 23.7364 51.821 24.423C51.821 25.1097 51.2555 25.6752 50.5689 25.6752C49.8822 25.6752 49.3167 25.1097 49.3167 24.423ZM56.3044 22.1611V20.4809H57.4353C58.4855 20.4809 59.1964 19.8346 59.1883 18.9218C59.1883 18.0736 58.5017 17.4515 57.4677 17.4515C56.3367 17.4515 55.7955 18.2513 55.747 18.9702H53.7113C53.7598 17.2092 55.0927 15.7632 57.5404 15.7632C59.7296 15.7632 61.3048 16.9588 61.3371 18.631C61.3614 20.1901 60.1819 21.0544 59.3418 21.1756V21.2564C60.3597 21.3291 61.6683 22.145 61.6926 23.9141C61.7168 25.9094 59.7942 27.2181 57.4515 27.2181C54.8018 27.2181 53.5416 25.6994 53.5012 23.9303H55.5127C55.6016 24.8189 56.3044 25.5055 57.508 25.5055C58.7763 25.5055 59.5195 24.7785 59.5114 23.8091C59.5034 22.8559 58.7763 22.1611 57.4919 22.1611H56.3044ZM67.1615 15.9732H70.2636V23.1952H71.6126V24.9562H70.2636V27H68.2117V24.9562H62.8801V23.1952C64.1726 20.7717 65.667 18.324 67.1615 15.9732ZM64.8592 23.1952H68.2117V17.6212H68.139C67.008 19.3742 65.8448 21.2968 64.8592 23.1709V23.1952Z" fill="black"/>
<g clip-path="url(#clip0_197_943)">
<rect width="415.848" height="900" fill="url(#paint0_linear_197_943)"/>
<path d="M56.7588 532.463C-33.448 480.915 247.682 312.65 230.557 202.3C214.162 96.6596 83.8194 28.2581 149.399 -75.5304C251.272 -236.757 660.492 -3.31563 711.518 149.13C768.824 320.34 207.419 618.558 56.7588 532.463Z" fill="url(#paint1_linear_197_943)" fill-opacity="0.6"/>
<path d="M576.862 401.897C519.23 411.545 477.133 393.321 437.193 364.566C420.008 352.195 403.235 337.882 385.793 322.999C382.953 320.576 380.095 318.138 377.215 315.69C356.654 298.216 334.963 280.283 310.483 264.087C287.044 248.58 262.829 236.306 239.357 224.902C235.463 223.01 231.589 221.142 227.742 219.287C208.399 209.959 189.752 200.967 172.65 190.929C131.67 166.874 99.6365 136.857 88.4163 81.978C79.7039 39.3649 91.0374 2.59135 115.417 -27.4898C139.808 -57.5855 177.269 -80.9939 220.808 -96.8011C307.895 -128.42 419.115 -129.563 498.176 -93.1819C542.537 -72.7678 581.688 -33.634 612.445 14.1304C643.2 61.8907 665.539 118.246 676.297 173.052C687.056 227.865 686.221 281.082 670.68 322.587C655.149 364.066 624.935 393.85 576.862 401.897Z" stroke="#FFD566"/>
<path d="M671.798 334.121C618.992 342.94 580.419 326.281 543.818 299.991C528.07 288.679 512.699 275.592 496.713 261.982C494.109 259.766 491.49 257.536 488.85 255.298C470.005 239.318 450.123 222.918 427.684 208.106C406.199 193.924 384.004 182.699 362.491 172.271C358.921 170.541 355.37 168.832 351.845 167.136C334.116 158.606 317.028 150.385 301.354 141.206C263.8 119.213 234.452 91.7718 224.172 41.6042C216.19 2.65065 226.573 -30.9638 248.91 -58.4624C271.258 -85.9755 305.586 -107.378 345.485 -121.831C425.295 -150.742 527.22 -151.786 599.67 -118.523C640.319 -99.8594 676.196 -64.0803 704.383 -20.4066C732.568 23.2631 753.04 74.792 762.899 124.904C772.759 175.023 771.993 223.678 757.753 261.622C743.523 299.54 715.843 326.764 671.798 334.121Z" stroke="#4480B3"/>
<path d="M738.88 309.614C632.917 327.311 584.057 242.7 494.409 183.523C408.587 126.872 311.32 117.417 290.682 16.7045C258.623 -139.745 521.697 -210.634 666.878 -143.977C829.93 -69.1152 915.856 280.056 738.88 309.614Z" stroke="white" stroke-opacity="0.6"/>
</g>
<defs>
<linearGradient id="paint0_linear_197_943" x1="208" y1="4.40344e-10" x2="207.924" y2="900" gradientUnits="userSpaceOnUse">
<stop offset="0.208333" stop-color="#5694C7"/>
<stop offset="1" stop-color="#FFFAE9"/>
</linearGradient>
<linearGradient id="paint1_linear_197_943" x1="536.588" y1="-43.88" x2="56" y2="570.5" gradientUnits="userSpaceOnUse">
<stop stop-color="white" stop-opacity="0"/>
<stop offset="1" stop-color="#FFF4CF"/>
</linearGradient>
<clipPath id="clip0_197_943">
<rect width="415.848" height="900" fill="white"/>
</clipPath>
</defs>
</svg>
