<svg width="255" height="306" viewBox="0 0 255 306" fill="none" xmlns="http://www.w3.org/2000/svg">
<path d="M128.148 251.518L128.13 249.018L125.648 249.035V251.518H128.148ZM128.148 251.537L128.088 254.036L130.648 254.097V251.537H128.148ZM92.6646 263.521L91.0993 261.572L90.3066 262.209L90.1831 263.218L92.6646 263.521ZM9.73841 281.698L11.8625 280.38L11.1291 279.198H9.73841V281.698ZM9.21289 281.698H6.71289V284.198H9.21289V281.698ZM9.21289 280.83H11.7129V280.147L11.3662 279.56L9.21289 280.83ZM3.03306 124.366L5.53125 124.461L5.53197 124.442L5.5324 124.423L3.03306 124.366ZM101.533 197.566L100.336 195.371L95.4577 198.03L100.684 199.917L101.533 197.566ZM119.737 169.197L117.243 169.025L119.737 169.197ZM87.1963 131.85L87.0247 134.344H87.0248L87.1963 131.85ZM75.2916 133.071L72.8054 133.333L73.1163 136.281L75.9696 135.477L75.2916 133.071ZM179.887 124.042L177.393 124.204L177.545 126.542H179.887V124.042ZM186.988 124.042V126.542H189.637L189.483 123.897L186.988 124.042ZM69.8751 142.429L67.454 143.052L68.3505 146.536L71.303 144.481L69.8751 142.429ZM69.8878 142.421L72.3107 141.805L71.4217 138.307L68.4598 140.368L69.8878 142.421ZM70.0251 142.95L67.6084 143.59L68.4726 146.854L71.3425 145.075L70.0251 142.95ZM86.6698 138.83L86.8414 136.336H86.8414L86.6698 138.83ZM112.664 168.664L115.158 168.835L112.664 168.664ZM92.5321 193.628L91.3816 195.848L92.2682 196.307L93.2275 196.029L92.5321 193.628ZM127.67 187.089L127.673 189.589L127.67 184.589V187.089ZM127.544 187.089L127.541 189.589H127.547L127.544 187.089ZM127.419 187.089V184.589L127.416 189.589L127.419 187.089ZM128.165 254.018C197.757 253.531 254.021 196.966 254.021 127.26H249.021C249.021 194.217 194.976 248.55 128.13 249.018L128.165 254.018ZM130.648 251.537V251.518H125.648V251.537H130.648ZM126.816 254.021C127.241 254.021 127.665 254.026 128.088 254.036L128.208 249.037C127.745 249.026 127.281 249.021 126.816 249.021V254.021ZM94.2299 265.471C103.153 258.306 114.481 254.021 126.816 254.021V249.021C113.302 249.021 100.878 253.72 91.0993 261.572L94.2299 265.471ZM48 305.5C72.2622 305.5 92.2726 287.312 95.1461 263.825L90.1831 263.218C87.6126 284.227 69.7048 300.5 48 300.5V305.5ZM7.61431 283.017C15.988 296.507 30.9428 305.5 48 305.5V300.5C32.7436 300.5 19.3624 292.463 11.8625 280.38L7.61431 283.017ZM9.21289 284.198H9.73841V279.198H9.21289V284.198ZM6.71289 280.83V281.698H11.7129V280.83H6.71289ZM0.5 258C0.5 266.792 2.89093 275.033 7.05959 282.1L11.3662 279.56C7.63904 273.241 5.5 265.874 5.5 258H0.5ZM0.5 127.26V258H5.5V127.26H0.5ZM0.5 126.106V127.26H5.5V126.106H0.5ZM0.534864 124.27C0.511688 124.88 0.5 125.492 0.5 126.106H5.5C5.5 125.555 5.51048 125.006 5.53125 124.461L0.534864 124.27ZM127.26 0.5C58.2393 0.5 2.10295 55.6635 0.53371 124.308L5.5324 124.423C7.0397 58.4877 60.9624 5.5 127.26 5.5V0.5ZM254.021 127.26C254.021 57.2525 197.268 0.5 127.26 0.5V5.5C194.507 5.5 249.021 60.014 249.021 127.26H254.021ZM127 204.5C169.802 204.5 204.5 169.802 204.5 127H199.5C199.5 167.041 167.041 199.5 127 199.5V204.5ZM100.684 199.917C108.904 202.884 117.766 204.5 127 204.5V199.5C118.353 199.5 110.065 197.987 102.382 195.214L100.684 199.917ZM102.73 199.76C113.6 193.834 121.318 182.647 122.231 169.368L117.243 169.025C116.451 180.53 109.771 190.227 100.336 195.371L102.73 199.76ZM122.231 169.368C123.653 148.692 108.044 130.778 87.3678 129.356L87.0248 134.344C104.946 135.576 118.475 151.104 117.243 169.025L122.231 169.368ZM87.3678 129.356C82.9497 129.052 78.6523 129.526 74.6135 130.664L75.9696 135.477C79.4641 134.492 83.1869 134.08 87.0247 134.344L87.3678 129.356ZM77.7778 132.808C77.5939 131.065 77.4995 129.294 77.4995 127.5H72.4995C72.4995 129.469 72.6031 131.415 72.8054 133.333L77.7778 132.808ZM77.4995 127.5C77.4995 99.8857 99.8853 77.5 127.5 77.5V72.5C97.1239 72.5 72.4995 97.1243 72.4995 127.5H77.4995ZM127.5 77.5C154.006 77.5 175.697 98.1275 177.393 124.204L182.382 123.88C180.517 95.1904 156.659 72.5 127.5 72.5V77.5ZM179.887 126.542H186.988V121.542H179.887V126.542ZM189.483 123.897C187.594 91.3274 160.586 65.5 127.544 65.5V70.5C157.922 70.5 182.755 94.246 184.492 124.187L189.483 123.897ZM127.544 65.5C93.2779 65.5 65.4995 93.2784 65.4995 127.545H70.4995C70.4995 96.0398 96.0393 70.5 127.544 70.5V65.5ZM65.4995 127.545C65.4995 132.896 66.1777 138.093 67.454 143.052L72.2962 141.806C71.1238 137.251 70.4995 132.472 70.4995 127.545H65.4995ZM71.303 144.481L71.3157 144.473L68.4598 140.368L68.4471 140.377L71.303 144.481ZM67.4649 143.036C67.5118 143.221 67.5596 143.405 67.6084 143.59L72.4418 142.31C72.3973 142.142 72.3536 141.973 72.3107 141.805L67.4649 143.036ZM71.3425 145.075C75.7221 142.359 80.9609 140.943 86.4983 141.324L86.8414 136.336C80.2242 135.881 73.9484 137.576 68.7078 140.825L71.3425 145.075ZM86.4983 141.324C100.537 142.29 111.136 154.453 110.17 168.492L115.158 168.835C116.313 152.041 103.635 137.491 86.8414 136.336L86.4983 141.324ZM110.17 168.492C109.416 179.461 101.825 188.335 91.8368 191.227L93.2275 196.029C105.167 192.572 114.255 181.965 115.158 168.835L110.17 168.492ZM49.5 127C49.5 156.965 66.5061 182.953 91.3816 195.848L93.6827 191.409C70.4 179.34 54.5 155.024 54.5 127H49.5ZM127 49.5C84.1979 49.5 49.5 84.1979 49.5 127H54.5C54.5 86.9594 86.9594 54.5 127 54.5V49.5ZM204.5 127C204.5 84.1979 169.802 49.5 127 49.5V54.5C167.041 54.5 199.5 86.9594 199.5 127H204.5ZM127.667 184.589L127.541 184.589L127.547 189.589L127.673 189.589L127.667 184.589ZM127.419 189.589H127.67V184.589H127.419V189.589ZM127.547 184.589L127.421 184.589L127.416 189.589L127.541 189.589L127.547 184.589Z" fill="url(#paint0_linear_198_1528)"/>
<defs>
<linearGradient id="paint0_linear_198_1528" x1="127.26" y1="3" x2="127" y2="333" gradientUnits="userSpaceOnUse">
<stop stop-color="#5B5EAA"/>
<stop offset="0.661458" stop-color="#7BABCF"/>
<stop offset="1" stop-color="#FFD566"/>
</linearGradient>
</defs>
</svg>
