<svg width="249" height="300" viewBox="0 0 249 300" fill="none" xmlns="http://www.w3.org/2000/svg">
<path fill-rule="evenodd" clip-rule="evenodd" d="M248.521 124.26C248.521 192.591 193.366 248.04 125.148 248.518V248.537C124.705 248.526 124.261 248.521 123.816 248.521C110.891 248.521 99.0152 253.013 89.6646 260.521C86.9426 282.77 67.9835 300 45 300C28.8432 300 14.6752 291.485 6.73841 278.698H6.21289V277.83C2.26498 271.137 0 263.333 0 255V124.26V123.106C0 122.523 0.0110854 121.943 0.033057 121.366C1.57133 54.0756 56.6008 0 124.26 0C192.887 0 248.521 55.6333 248.521 124.26ZM199 124C199 165.421 165.421 199 124 199C115.059 199 106.484 197.436 98.533 194.566C108.686 189.03 115.885 178.588 116.737 166.197C118.064 146.898 103.495 130.177 84.1963 128.85C80.0683 128.566 76.0582 129.009 72.2916 130.071C72.0985 128.24 71.9995 126.382 71.9995 124.5C71.9995 95.505 95.5046 72 124.5 72C152.333 72 175.107 93.659 176.887 121.042H183.988C182.174 89.7867 156.254 65 124.544 65C91.6586 65 64.9995 91.6591 64.9995 124.545C64.9995 129.684 65.6507 134.672 66.8751 139.429L66.8878 139.421C66.9327 139.597 66.9785 139.774 67.0251 139.95C71.8352 136.967 77.5925 135.412 83.6698 135.83C99.0863 136.89 110.724 150.247 109.664 165.664C108.836 177.713 100.496 187.453 89.5321 190.628C65.453 178.146 49 152.995 49 124C49 82.5786 82.5786 49 124 49C165.421 49 199 82.5786 199 124ZM124.544 184.089L124.67 184.089H124.419L124.544 184.089Z" fill="#FFD566"/>
</svg>
