<svg width="104" height="31" viewBox="0 0 104 31" fill="none" xmlns="http://www.w3.org/2000/svg">
<path d="M9.80425 1.6C10.9136 1.6 11.9483 1.92 12.9083 2.56C13.8896 3.2 14.6789 4.064 15.2763 5.152C15.8736 6.24 16.1723 7.456 16.1723 8.8C16.1723 10.1227 15.8736 11.328 15.2763 12.416C14.6789 13.504 13.8896 14.3787 12.9083 15.04C11.9483 15.68 10.9136 16 9.80425 16H3.91625L4.23625 15.424V22.048C4.23625 22.6027 4.06558 23.072 3.72425 23.456C3.38292 23.8187 2.93492 24 2.38025 24C1.84692 24 1.40958 23.8187 1.06825 23.456C0.726917 23.072 0.55625 22.6027 0.55625 22.048V3.552C0.55625 2.99733 0.737583 2.53867 1.10025 2.176C1.48425 1.792 1.95358 1.6 2.50825 1.6H9.80425ZM9.80425 12.352C10.2096 12.352 10.6043 12.1813 10.9883 11.84C11.3723 11.4987 11.6923 11.0613 11.9483 10.528C12.2043 9.97333 12.3323 9.39733 12.3323 8.8C12.3323 8.18133 12.2043 7.60533 11.9483 7.072C11.6923 6.53867 11.3723 6.112 10.9883 5.792C10.6043 5.45067 10.2096 5.28 9.80425 5.28H3.85225L4.23625 4.704V12.864L3.88425 12.352H9.80425ZM33.3773 6.56C33.9319 6.56 34.3906 6.74133 34.7533 7.104C35.1159 7.46667 35.2973 7.936 35.2973 8.512V22.048C35.2973 22.6027 35.1159 23.072 34.7533 23.456C34.3906 23.8187 33.9319 24 33.3773 24C32.8226 24 32.3639 23.8187 32.0013 23.456C31.6386 23.072 31.4573 22.6027 31.4573 22.048V20.48L32.1613 20.768C32.1613 21.0453 32.0119 21.3867 31.7133 21.792C31.4146 22.176 31.0093 22.56 30.4973 22.944C29.9853 23.328 29.3773 23.6587 28.6733 23.936C27.9906 24.192 27.2439 24.32 26.4333 24.32C24.9613 24.32 23.6279 23.9467 22.4333 23.2C21.2386 22.432 20.2893 21.3867 19.5853 20.064C18.9026 18.72 18.5613 17.184 18.5613 15.456C18.5613 13.7067 18.9026 12.1707 19.5853 10.848C20.2893 9.504 21.2279 8.45867 22.4013 7.712C23.5746 6.944 24.8759 6.56 26.3053 6.56C27.2226 6.56 28.0653 6.69867 28.8333 6.976C29.6013 7.25333 30.2626 7.60533 30.8173 8.032C31.3933 8.45867 31.8306 8.896 32.1293 9.344C32.4493 9.77067 32.6093 10.1333 32.6093 10.432L31.4573 10.848V8.512C31.4573 7.95733 31.6386 7.49867 32.0013 7.136C32.3639 6.752 32.8226 6.56 33.3773 6.56ZM26.9133 20.8C27.8519 20.8 28.6733 20.5653 29.3773 20.096C30.0813 19.6267 30.6253 18.9867 31.0093 18.176C31.4146 17.3653 31.6173 16.4587 31.6173 15.456C31.6173 14.432 31.4146 13.5147 31.0093 12.704C30.6253 11.8933 30.0813 11.2533 29.3773 10.784C28.6733 10.3147 27.8519 10.08 26.9133 10.08C25.9959 10.08 25.1853 10.3147 24.4813 10.784C23.7773 11.2533 23.2226 11.8933 22.8173 12.704C22.4333 13.5147 22.2413 14.432 22.2413 15.456C22.2413 16.4587 22.4333 17.3653 22.8173 18.176C23.2226 18.9867 23.7773 19.6267 24.4813 20.096C25.1853 20.5653 25.9959 20.8 26.9133 20.8ZM43.071 22.048C43.071 22.6027 42.8897 23.072 42.527 23.456C42.1643 23.8187 41.7057 24 41.151 24C40.5963 24 40.1377 23.8187 39.775 23.456C39.4123 23.072 39.231 22.6027 39.231 22.048V8.832C39.231 8.27733 39.4123 7.81867 39.775 7.456C40.1377 7.072 40.5963 6.88 41.151 6.88C41.7057 6.88 42.1643 7.072 42.527 7.456C42.8897 7.81867 43.071 8.27733 43.071 8.832V22.048ZM41.119 4.8C40.3937 4.8 39.8817 4.68267 39.583 4.448C39.2843 4.21333 39.135 3.79733 39.135 3.2V2.592C39.135 1.97333 39.295 1.55733 39.615 1.344C39.9563 1.10933 40.4683 0.991999 41.151 0.991999C41.8977 0.991999 42.4203 1.10933 42.719 1.344C43.0177 1.57867 43.167 1.99467 43.167 2.592V3.2C43.167 3.81867 43.007 4.24533 42.687 4.48C42.367 4.69333 41.8443 4.8 41.119 4.8ZM48.9375 24C48.3828 24 47.9242 23.8187 47.5615 23.456C47.1988 23.072 47.0175 22.6027 47.0175 22.048V8.832C47.0175 8.27733 47.1988 7.81867 47.5615 7.456C47.9242 7.072 48.3828 6.88 48.9375 6.88C49.4922 6.88 49.9508 7.072 50.3135 7.456C50.6762 7.81867 50.8575 8.27733 50.8575 8.832V11.84L50.6335 9.696C50.8682 9.184 51.1668 8.736 51.5295 8.352C51.9135 7.94667 52.3402 7.616 52.8095 7.36C53.2788 7.08267 53.7802 6.88 54.3135 6.752C54.8468 6.624 55.3802 6.56 55.9135 6.56C56.5535 6.56 57.0868 6.74133 57.5135 7.104C57.9615 7.46667 58.1855 7.89333 58.1855 8.384C58.1855 9.088 58.0042 9.6 57.6415 9.92C57.2788 10.2187 56.8842 10.368 56.4575 10.368C56.0522 10.368 55.6788 10.2933 55.3375 10.144C55.0175 9.99467 54.6442 9.92 54.2175 9.92C53.8335 9.92 53.4388 10.016 53.0335 10.208C52.6495 10.3787 52.2868 10.656 51.9455 11.04C51.6255 11.424 51.3588 11.904 51.1455 12.48C50.9535 13.0347 50.8575 13.696 50.8575 14.464V22.048C50.8575 22.6027 50.6762 23.072 50.3135 23.456C49.9508 23.8187 49.4922 24 48.9375 24ZM64.5085 22.048C64.5085 22.6027 64.3272 23.072 63.9645 23.456C63.6018 23.8187 63.1432 24 62.5885 24C62.0338 24 61.5752 23.8187 61.2125 23.456C60.8498 23.072 60.6685 22.6027 60.6685 22.048V8.832C60.6685 8.27733 60.8498 7.81867 61.2125 7.456C61.5752 7.072 62.0338 6.88 62.5885 6.88C63.1432 6.88 63.6018 7.072 63.9645 7.456C64.3272 7.81867 64.5085 8.27733 64.5085 8.832V22.048ZM62.5565 4.8C61.8312 4.8 61.3192 4.68267 61.0205 4.448C60.7218 4.21333 60.5725 3.79733 60.5725 3.2V2.592C60.5725 1.97333 60.7325 1.55733 61.0525 1.344C61.3938 1.10933 61.9058 0.991999 62.5885 0.991999C63.3352 0.991999 63.8578 1.10933 64.1565 1.344C64.4552 1.57867 64.6045 1.99467 64.6045 2.592V3.2C64.6045 3.81867 64.4445 4.24533 64.1245 4.48C63.8045 4.69333 63.2818 4.8 62.5565 4.8ZM77.607 6.56C79.1857 6.56 80.3803 6.89067 81.191 7.552C82.023 8.21333 82.5883 9.09867 82.887 10.208C83.207 11.296 83.367 12.512 83.367 13.856V22.048C83.367 22.6027 83.1857 23.072 82.823 23.456C82.4603 23.8187 82.0017 24 81.447 24C80.8923 24 80.4337 23.8187 80.071 23.456C79.7083 23.072 79.527 22.6027 79.527 22.048V13.856C79.527 13.152 79.431 12.5227 79.239 11.968C79.0683 11.392 78.7483 10.9333 78.279 10.592C77.8097 10.2507 77.1377 10.08 76.263 10.08C75.4097 10.08 74.6843 10.2507 74.087 10.592C73.511 10.9333 73.063 11.392 72.743 11.968C72.4443 12.5227 72.295 13.152 72.295 13.856V22.048C72.295 22.6027 72.1137 23.072 71.751 23.456C71.3883 23.8187 70.9297 24 70.375 24C69.8203 24 69.3617 23.8187 68.999 23.456C68.6363 23.072 68.455 22.6027 68.455 22.048V8.832C68.455 8.27733 68.6363 7.81867 68.999 7.456C69.3617 7.072 69.8203 6.88 70.375 6.88C70.9297 6.88 71.3883 7.072 71.751 7.456C72.1137 7.81867 72.295 8.27733 72.295 8.832V10.208L71.815 10.112C72.007 9.74933 72.2843 9.36533 72.647 8.96C73.0097 8.53333 73.4363 8.13867 73.927 7.776C74.4177 7.41333 74.9723 7.12533 75.591 6.912C76.2097 6.67733 76.8817 6.56 77.607 6.56ZM94.6215 6.56C95.5175 6.56 96.3388 6.69867 97.0855 6.976C97.8322 7.25333 98.4722 7.60533 99.0055 8.032C99.5602 8.45867 99.9868 8.896 100.286 9.344C100.606 9.77067 100.766 10.1333 100.766 10.432L99.9335 10.848V8.512C99.9335 7.95733 100.115 7.49867 100.478 7.136C100.84 6.752 101.299 6.56 101.854 6.56C102.408 6.56 102.867 6.74133 103.23 7.104C103.592 7.46667 103.774 7.936 103.774 8.512V22.752C103.774 24.608 103.368 26.0907 102.558 27.2C101.768 28.3307 100.723 29.1413 99.4215 29.632C98.1202 30.144 96.7228 30.4 95.2295 30.4C94.8028 30.4 94.2482 30.3467 93.5655 30.24C92.8828 30.1333 92.2322 30.0053 91.6135 29.856C90.9948 29.7067 90.5255 29.568 90.2055 29.44C89.5655 29.1627 89.1175 28.8107 88.8615 28.384C88.6268 27.9787 88.5842 27.5413 88.7335 27.072C88.9255 26.4533 89.2348 26.0267 89.6615 25.792C90.0882 25.5787 90.5362 25.5573 91.0055 25.728C91.2188 25.792 91.5708 25.92 92.0615 26.112C92.5522 26.304 93.0855 26.4747 93.6615 26.624C94.2588 26.7947 94.7815 26.88 95.2295 26.88C96.8295 26.88 98.0135 26.56 98.7815 25.92C99.5495 25.28 99.9335 24.3947 99.9335 23.264V20.48L100.318 20.768C100.318 21.0453 100.168 21.3867 99.8695 21.792C99.5922 22.176 99.1975 22.56 98.6855 22.944C98.1948 23.328 97.6082 23.6587 96.9255 23.936C96.2428 24.192 95.5175 24.32 94.7495 24.32C93.2348 24.32 91.8695 23.9467 90.6535 23.2C89.4375 22.432 88.4775 21.3867 87.7735 20.064C87.0695 18.72 86.7175 17.184 86.7175 15.456C86.7175 13.7067 87.0695 12.1707 87.7735 10.848C88.4775 9.504 89.4268 8.45867 90.6215 7.712C91.8162 6.944 93.1495 6.56 94.6215 6.56ZM95.2295 10.08C94.2695 10.08 93.4268 10.3147 92.7015 10.784C91.9762 11.2533 91.4108 11.8933 91.0055 12.704C90.6002 13.5147 90.3975 14.432 90.3975 15.456C90.3975 16.4587 90.6002 17.3653 91.0055 18.176C91.4108 18.9867 91.9762 19.6267 92.7015 20.096C93.4268 20.5653 94.2695 20.8 95.2295 20.8C96.2108 20.8 97.0642 20.5653 97.7895 20.096C98.5148 19.6267 99.0802 18.9867 99.4855 18.176C99.8908 17.3653 100.094 16.4587 100.094 15.456C100.094 14.432 99.8908 13.5147 99.4855 12.704C99.0802 11.8933 98.5148 11.2533 97.7895 10.784C97.0642 10.3147 96.2108 10.08 95.2295 10.08Z" fill="url(#paint0_linear_197_1059)"/>
<defs>
<linearGradient id="paint0_linear_197_1059" x1="-20.2835" y1="11.5745" x2="126.409" y2="11.5745" gradientUnits="userSpaceOnUse">
<stop stop-color="#FFD566"/>
<stop offset="0.4375" stop-color="#4480B3"/>
<stop offset="1" stop-color="#5B5EAA"/>
</linearGradient>
</defs>
</svg>
