<svg width="416" height="900" viewBox="0 0 416 900" fill="none" xmlns="http://www.w3.org/2000/svg">
<g clip-path="url(#clip0_359_992)">
<rect width="415.848" height="900" fill="url(#paint0_linear_359_992)"/>
<path d="M56.7588 532.463C-33.448 480.915 247.682 312.65 230.557 202.3C214.162 96.6596 83.8194 28.2581 149.399 -75.5304C251.272 -236.757 660.492 -3.31563 711.518 149.13C768.824 320.34 207.419 618.558 56.7588 532.463Z" fill="url(#paint1_linear_359_992)" fill-opacity="0.6"/>
<path d="M671.88 334.614C565.917 352.311 517.057 267.7 427.409 208.523C341.587 151.872 244.32 142.417 223.682 41.7045C191.623 -114.745 454.697 -185.634 599.878 -118.977C762.93 -44.1152 848.856 305.056 671.88 334.614Z" fill="#5B5EAA"/>
<path d="M738.88 309.614C632.917 327.311 584.057 242.7 494.409 183.523C408.587 126.872 311.32 117.417 290.682 16.7045C258.623 -139.745 521.697 -210.634 666.878 -143.977C829.93 -69.1152 915.856 280.056 738.88 309.614Z" stroke="white" stroke-opacity="0.6"/>
</g>
<defs>
<linearGradient id="paint0_linear_359_992" x1="207.924" y1="0" x2="207.924" y2="900" gradientUnits="userSpaceOnUse">
<stop stop-color="#5B5EAA"/>
<stop offset="0.973958" stop-color="#FFF4CF"/>
</linearGradient>
<linearGradient id="paint1_linear_359_992" x1="536.588" y1="-43.88" x2="56" y2="570.5" gradientUnits="userSpaceOnUse">
<stop stop-color="white" stop-opacity="0"/>
<stop offset="1" stop-color="#FFF4CF"/>
</linearGradient>
<clipPath id="clip0_359_992">
<rect width="415.848" height="900" fill="white"/>
</clipPath>
</defs>
</svg>
