<svg width="416" height="900" viewBox="0 0 416 900" fill="none" xmlns="http://www.w3.org/2000/svg">
<g clip-path="url(#clip0_198_1513)">
<rect width="415.848" height="900" fill="url(#paint0_linear_198_1513)"/>
<path d="M57.255 531.595C46.2045 525.28 40.966 517.272 40.0249 507.903C39.0752 498.449 42.4798 487.432 49.1463 475.123C62.4787 450.505 88.5312 421.287 116.991 390.106C119.148 387.742 121.32 385.367 123.5 382.983C150.031 353.962 177.89 323.488 198.759 293.767C221.312 261.647 235.891 230.151 231.545 202.146C227.418 175.557 216.127 151.347 202.599 128.409C195.834 116.939 188.5 105.773 181.215 94.7823C180.502 93.7059 179.789 92.6312 179.077 91.5581C172.515 81.6678 166.043 71.912 160.091 62.169C146.892 40.562 136.322 19.1215 133.098 -3.33147C129.88 -25.7419 133.97 -49.2391 150.244 -74.9963C175.453 -114.892 219.711 -130.472 273.002 -128.883C326.301 -127.294 388.459 -108.522 449.099 -79.9229C509.729 -51.3287 568.772 -12.9442 615.832 27.7974C662.92 68.5634 697.899 111.593 710.569 149.448C717.635 170.556 715.19 193.685 705.093 217.904C694.993 242.13 677.257 267.389 653.84 292.683C607.008 343.27 537.592 393.847 461.637 436.414C385.686 478.977 303.259 513.496 230.437 531.996C194.026 541.246 160.044 546.485 130.491 546.733C100.925 546.981 75.8739 542.235 57.255 531.595Z" fill="url(#paint1_linear_198_1513)" stroke="url(#paint2_linear_198_1513)" stroke-width="2"/>
<path d="M576.779 401.404C519.324 411.022 477.36 392.868 437.485 364.161C420.319 351.802 403.563 337.505 386.12 322.621C383.279 320.197 380.421 317.758 377.539 315.309C356.976 297.833 335.266 279.883 310.759 263.67C287.291 248.143 263.051 235.857 239.576 224.452C235.678 222.559 231.802 220.69 227.955 218.834C208.611 209.506 189.986 200.525 172.903 190.497C131.993 166.485 100.088 136.568 88.9061 81.8778C80.2261 39.4231 91.5121 2.79969 115.805 -27.175C140.121 -57.1787 177.495 -80.5438 220.978 -96.3312C307.967 -127.914 419.048 -129.044 497.967 -92.7276C542.214 -72.366 581.3 -33.313 612.025 14.4011C642.744 62.1071 665.061 118.403 675.806 173.148C686.555 227.908 685.709 281.023 670.211 322.412C654.734 363.747 624.653 393.39 576.779 401.404Z" stroke="url(#paint3_linear_198_1513)" stroke-width="2"/>
<path d="M671.716 333.627C619.085 342.418 580.645 325.828 544.11 299.584C528.38 288.285 513.026 275.214 497.038 261.603C494.435 259.387 491.815 257.156 489.173 254.916C470.326 238.935 450.425 222.518 427.96 207.689C406.446 193.487 384.225 182.251 362.709 171.821C359.136 170.089 355.584 168.38 352.057 166.683C334.328 158.153 317.261 149.942 301.607 140.774C264.123 118.822 234.903 91.4826 224.662 41.5038C216.712 2.70905 227.047 -30.755 249.298 -58.1471C271.572 -85.5684 305.811 -106.927 345.656 -121.361C425.367 -150.236 527.153 -151.267 599.461 -118.068C639.997 -99.4573 675.809 -63.7588 703.963 -20.1354C732.112 23.4799 752.562 74.9493 762.408 125C772.258 175.066 771.481 223.619 757.285 261.447C743.108 299.22 715.561 326.305 671.716 333.627Z" stroke="url(#paint4_linear_198_1513)" stroke-width="2"/>
<path d="M738.88 309.614C632.917 327.311 584.057 242.7 494.409 183.523C408.587 126.872 311.32 117.417 290.682 16.7045C258.623 -139.745 521.697 -210.634 666.878 -143.977C829.93 -69.1152 915.856 280.056 738.88 309.614Z" stroke="url(#paint5_linear_198_1513)" stroke-width="2"/>
</g>
<defs>
<linearGradient id="paint0_linear_198_1513" x1="207.924" y1="0" x2="207.924" y2="900" gradientUnits="userSpaceOnUse">
<stop stop-color="#5B5EAA"/>
<stop offset="0.473958" stop-color="#7BABCF"/>
<stop offset="1" stop-color="#FFF4D0"/>
</linearGradient>
<linearGradient id="paint1_linear_198_1513" x1="536.588" y1="-43.88" x2="38.5236" y2="517.678" gradientUnits="userSpaceOnUse">
<stop stop-color="white" stop-opacity="0.24"/>
<stop offset="1" stop-color="white"/>
</linearGradient>
<linearGradient id="paint2_linear_198_1513" x1="61" y1="-152.5" x2="625" y2="308.5" gradientUnits="userSpaceOnUse">
<stop stop-color="#5B5EAA"/>
<stop offset="1" stop-color="#BCB8C7" stop-opacity="0"/>
</linearGradient>
<linearGradient id="paint3_linear_198_1513" x1="384.5" y1="-121" x2="405" y2="433.5" gradientUnits="userSpaceOnUse">
<stop stop-color="#FFCB42"/>
<stop offset="1" stop-color="white"/>
</linearGradient>
<linearGradient id="paint4_linear_198_1513" x1="512" y1="237.5" x2="-20" y2="-55.5" gradientUnits="userSpaceOnUse">
<stop stop-color="#4480B3"/>
<stop offset="0.541562" stop-color="white"/>
</linearGradient>
<linearGradient id="paint5_linear_198_1513" x1="249.5" y1="-99.5" x2="350" y2="178.5" gradientUnits="userSpaceOnUse">
<stop stop-color="#5B5EAA"/>
<stop offset="1" stop-color="white"/>
</linearGradient>
<clipPath id="clip0_198_1513">
<rect width="415.848" height="900" fill="white"/>
</clipPath>
</defs>
</svg>
